<svg height="140" viewBox="0 0 740 1009" fill="none" xmlns="http://www.w3.org/2000/svg">
<path d="M174.278 973H166.322V901.09H171.983L173.207 911.035C176.573 907.669 180.194 905.017 184.07 903.079C187.946 901.039 192.587 900.019 197.993 900.019C203.093 900.019 207.275 901.09 210.539 903.232C213.803 905.272 216.251 908.128 217.883 911.8C221.453 908.026 225.38 905.119 229.664 903.079C233.948 901.039 238.691 900.019 243.893 900.019C251.237 900.019 256.745 902.11 260.417 906.292C264.191 910.372 266.078 916.084 266.078 923.428V973H258.122V925.876C258.122 919.756 256.796 915.013 254.144 911.647C251.594 908.281 246.953 906.598 240.221 906.598C236.753 906.598 233.132 907.567 229.358 909.505C225.686 911.443 222.575 914.044 220.025 917.308C220.127 918.226 220.178 919.246 220.178 920.368C220.178 921.49 220.178 922.51 220.178 923.428V973H212.222V925.876C212.222 919.756 210.998 915.013 208.55 911.647C206.102 908.281 201.563 906.598 194.933 906.598C191.159 906.598 187.436 907.618 183.764 909.658C180.194 911.596 177.032 914.299 174.278 917.767V973ZM348.195 936.28C348.195 942.298 347.379 947.704 345.747 952.498C344.115 957.19 341.82 961.168 338.862 964.432C336.006 967.594 332.64 970.042 328.764 971.776C324.888 973.408 320.655 974.224 316.065 974.224C311.577 974.224 307.344 973.459 303.366 971.929C299.49 970.297 296.124 967.951 293.268 964.891C290.412 961.831 288.168 958.057 286.536 953.569C284.904 948.979 284.088 943.726 284.088 937.81C284.088 931.792 284.904 926.437 286.536 921.745C288.27 917.053 290.616 913.126 293.574 909.964C296.532 906.7 300 904.252 303.978 902.62C307.956 900.988 312.189 900.172 316.677 900.172C321.165 900.172 325.347 900.937 329.223 902.467C333.099 903.997 336.414 906.292 339.168 909.352C342.024 912.412 344.217 916.186 345.747 920.674C347.379 925.162 348.195 930.364 348.195 936.28ZM339.933 937.045C339.933 931.741 339.27 927.202 337.944 923.428C336.618 919.552 334.833 916.39 332.589 913.942C330.447 911.392 327.948 909.556 325.092 908.434C322.236 907.21 319.278 906.598 316.218 906.598C313.158 906.598 310.2 907.21 307.344 908.434C304.488 909.556 301.938 911.392 299.694 913.942C297.45 916.39 295.665 919.552 294.339 923.428C293.013 927.202 292.35 931.741 292.35 937.045C292.35 942.655 293.013 947.398 294.339 951.274C295.767 955.15 297.603 958.312 299.847 960.76C302.091 963.208 304.641 964.993 307.497 966.115C310.455 967.237 313.464 967.798 316.524 967.798C319.584 967.798 322.491 967.288 325.245 966.268C328.101 965.146 330.6 963.361 332.742 960.913C334.986 958.465 336.72 955.303 337.944 951.427C339.27 947.449 339.933 942.655 339.933 937.045ZM374.194 973H366.238V901.09H372.052L373.276 911.035C376.744 907.771 380.467 905.17 384.445 903.232C388.525 901.192 393.115 900.172 398.215 900.172C405.559 900.172 411.271 902.212 415.351 906.292C419.533 910.372 421.624 916.084 421.624 923.428V973H413.668V925.417C413.668 922.765 413.362 920.317 412.75 918.073C412.24 915.727 411.271 913.738 409.843 912.106C408.517 910.372 406.681 909.046 404.335 908.128C402.091 907.108 399.286 906.598 395.92 906.598C392.044 906.598 388.168 907.618 384.292 909.658C380.518 911.596 377.152 914.248 374.194 917.614V973ZM440.411 924.958C440.411 920.98 441.074 917.461 442.4 914.401C443.828 911.239 445.817 908.638 448.367 906.598C450.917 904.456 453.926 902.875 457.394 901.855C460.964 900.733 464.84 900.172 469.022 900.172C470.858 900.172 472.439 900.274 473.765 900.478C475.193 900.682 476.57 900.886 477.896 901.09H507.731V907.21H498.857L485.546 906.292C488.708 908.026 491.258 910.576 493.196 913.942C495.134 917.308 496.103 920.929 496.103 924.805C496.103 928.783 495.389 932.353 493.961 935.515C492.635 938.575 490.697 941.176 488.147 943.318C485.699 945.46 482.792 947.092 479.426 948.214C476.06 949.234 472.388 949.744 468.41 949.744C466.982 949.744 465.554 949.693 464.126 949.591C462.8 949.489 461.372 949.285 459.842 948.979C457.394 949.897 455.405 951.325 453.875 953.263C452.345 955.099 451.58 957.037 451.58 959.077C451.58 961.729 452.549 963.667 454.487 964.891C456.527 966.013 459.077 966.574 462.137 966.574H480.803C488.759 966.574 494.777 968.257 498.857 971.623C502.937 974.989 504.977 979.324 504.977 984.628C504.977 988.198 504.161 991.411 502.529 994.267C500.897 997.225 498.551 999.724 495.491 1001.76C492.431 1003.8 488.708 1005.39 484.322 1006.51C479.936 1007.63 474.989 1008.19 469.481 1008.19C459.485 1008.19 451.529 1006.2 445.613 1002.22C439.697 998.347 436.739 992.992 436.739 986.158C436.739 982.384 437.81 979.171 439.952 976.519C442.196 973.969 445.358 971.98 449.438 970.552C447.908 969.736 446.531 968.41 445.307 966.574C444.185 964.636 443.624 962.443 443.624 959.995C443.624 956.629 444.593 953.875 446.531 951.733C448.469 949.489 450.713 947.755 453.263 946.531C451.631 945.817 450.05 944.797 448.52 943.471C446.99 942.145 445.613 940.564 444.389 938.728C443.165 936.892 442.196 934.852 441.482 932.608C440.768 930.262 440.411 927.712 440.411 924.958ZM455.252 973C452.294 974.02 449.846 975.601 447.908 977.743C446.072 979.885 445.154 982.384 445.154 985.24C445.154 990.748 447.398 994.879 451.886 997.633C456.476 1000.39 462.392 1001.76 469.634 1001.76C474.428 1001.76 478.508 1001.25 481.874 1000.23C485.342 999.316 488.147 998.041 490.289 996.409C492.533 994.879 494.165 993.094 495.185 991.054C496.205 989.116 496.715 987.127 496.715 985.087C496.715 982.639 496.205 980.599 495.185 978.967C494.267 977.437 492.89 976.213 491.054 975.295C489.32 974.479 487.229 973.867 484.781 973.459C482.435 973.153 479.834 973 476.978 973H455.252ZM487.841 925.264C487.841 919.246 486.107 914.656 482.639 911.494C479.171 908.23 474.632 906.598 469.022 906.598C466.166 906.598 463.514 907.006 461.066 907.822C458.618 908.536 456.476 909.658 454.64 911.188C452.804 912.616 451.325 914.452 450.203 916.696C449.183 918.94 448.673 921.592 448.673 924.652C448.673 930.976 450.56 935.668 454.334 938.728C458.108 941.788 462.8 943.318 468.41 943.318C474.02 943.318 478.661 941.839 482.333 938.881C486.005 935.923 487.841 931.384 487.841 925.264ZM578.89 936.28C578.89 942.298 578.074 947.704 576.442 952.498C574.81 957.19 572.515 961.168 569.557 964.432C566.701 967.594 563.335 970.042 559.459 971.776C555.583 973.408 551.35 974.224 546.76 974.224C542.272 974.224 538.039 973.459 534.061 971.929C530.185 970.297 526.819 967.951 523.963 964.891C521.107 961.831 518.863 958.057 517.231 953.569C515.599 948.979 514.783 943.726 514.783 937.81C514.783 931.792 515.599 926.437 517.231 921.745C518.965 917.053 521.311 913.126 524.269 909.964C527.227 906.7 530.695 904.252 534.673 902.62C538.651 900.988 542.884 900.172 547.372 900.172C551.86 900.172 556.042 900.937 559.918 902.467C563.794 903.997 567.109 906.292 569.863 909.352C572.719 912.412 574.912 916.186 576.442 920.674C578.074 925.162 578.89 930.364 578.89 936.28ZM570.628 937.045C570.628 931.741 569.965 927.202 568.639 923.428C567.313 919.552 565.528 916.39 563.284 913.942C561.142 911.392 558.643 909.556 555.787 908.434C552.931 907.21 549.973 906.598 546.913 906.598C543.853 906.598 540.895 907.21 538.039 908.434C535.183 909.556 532.633 911.392 530.389 913.942C528.145 916.39 526.36 919.552 525.034 923.428C523.708 927.202 523.045 931.741 523.045 937.045C523.045 942.655 523.708 947.398 525.034 951.274C526.462 955.15 528.298 958.312 530.542 960.76C532.786 963.208 535.336 964.993 538.192 966.115C541.15 967.237 544.159 967.798 547.219 967.798C550.279 967.798 553.186 967.288 555.94 966.268C558.796 965.146 561.295 963.361 563.437 960.913C565.681 958.465 567.415 955.303 568.639 951.427C569.965 947.449 570.628 942.655 570.628 937.045Z" fill="#777"/>
<path d="M0 370C0 70 173 0 370 0C567 0 740 70 740 370C740 670 567 740 370 740C173 740 0 670 0 370Z" fill="#FAFA00"/>
<path d="M413.6 545.2C412.2 538.2 411.267 532.367 410.8 527.7C410.8 522.567 410.567 516.733 410.1 510.2C394.233 526.067 377.2 537.733 359 545.2C341.267 552.667 322.833 556.4 303.7 556.4C271.967 556.4 247.467 547.767 230.2 530.5C213.4 513.233 205 492 205 466.8C205 444.4 211.067 425.5 223.2 410.1C235.333 394.233 251.2 381.4 270.8 371.6C290.4 361.333 312.1 353.633 335.9 348.5C359.7 342.9 383.267 339.867 406.6 339.4V300.9C406.6 287.367 404.967 275 401.7 263.8C398.9 252.133 393.533 243.033 385.6 236.5C377.667 229.5 366 226 350.6 226C340.333 226.467 329.833 228.8 319.1 233C308.833 236.733 300.667 242.8 294.6 251.2C298.333 255.4 300.667 260.067 301.6 265.2C302.533 269.867 303 274.067 303 277.8C303 286.2 299.733 295.067 293.2 304.4C286.667 313.267 276.167 317.467 261.7 317C249.1 316.533 239.3 312.1 232.3 303.7C225.767 295.3 222.5 285.267 222.5 273.6C222.5 255.867 228.8 240.467 241.4 227.4C254.467 213.867 271.967 203.367 293.9 195.9C315.833 187.967 340.333 184 367.4 184C407.533 184 438.333 194.5 459.8 215.5C481.267 236.5 491.767 270.1 491.3 316.3C491.3 332.633 491.3 347.567 491.3 361.1C491.3 374.167 491.067 387.467 490.6 401C490.6 414.067 490.6 428.767 490.6 445.1C490.6 452.1 490.367 460.967 489.9 471.7C489.433 481.967 488.733 492.233 487.8 502.5C496.2 501.567 504.6 501.1 513 501.1C521.867 500.633 529.1 500.167 534.7 499.7V545.2H413.6ZM405.9 380.7C391.9 381.633 378.133 383.967 364.6 387.7C351.067 390.967 338.933 395.633 328.2 401.7C317.467 407.767 308.833 415.467 302.3 424.8C296.233 433.667 293.433 443.933 293.9 455.6C294.367 470.067 299.033 480.8 307.9 487.8C316.767 494.333 327.033 497.6 338.7 497.6C352.233 497.6 364.367 494.8 375.1 489.2C386.3 483.6 396.567 476.133 405.9 466.8C405.9 462.133 405.9 457.233 405.9 452.1C405.9 446.967 405.9 441.833 405.9 436.7C405.9 430.167 405.9 422 405.9 412.2C405.9 402.4 405.9 391.9 405.9 380.7Z" fill="white"/>
</svg>
